ModelForces
version=1
nRows=4
nColumns=202
inDegrees=no

This file contains the forces exerted on a model during a simulation.

A force is a generalized force, meaning that it can be either a force (N) or a torque (Nm).

Units are S.I. units (second, meters, Newtons, ...)
Angles are in degrees.

endheader
time	glut_med1_r	glut_med2_r	glut_med3_r	glut_min1_r	glut_min2_r	glut_min3_r	semimem_r	semiten_r	bifemlh_r	bifemsh_r	sar_r	add_long_r	add_brev_r	add_mag1_r	add_mag2_r	add_mag3_r	tfl_r	pect_r	grac_r	glut_max1_r	glut_max2_r	glut_max3_r	iliacus_r	psoas_r	quad_fem_r	gem_r	peri_r	rect_fem_r	vas_med_r	vas_int_r	vas_lat_r	med_gas_r	lat_gas_r	soleus_r	tib_post_r	flex_dig_r	flex_hal_r	tib_ant_r	per_brev_r	per_long_r	per_tert_r	ext_dig_r	ext_hal_r	glut_med1_l	glut_med2_l	glut_med3_l	glut_min1_l	glut_min2_l	glut_min3_l	semimem_l	semiten_l	bifemlh_l	bifemsh_l	sar_l	add_long_l	add_brev_l	add_mag1_l	add_mag2_l	add_mag3_l	tfl_l	pect_l	grac_l	glut_max1_l	glut_max2_l	glut_max3_l	iliacus_l	psoas_l	quad_fem_l	gem_l	peri_l	rect_fem_l	vas_med_l	vas_int_l	vas_lat_l	med_gas_l	lat_gas_l	soleus_l	tib_post_l	flex_dig_l	flex_hal_l	tib_ant_l	per_brev_l	per_long_l	per_tert_l	ext_dig_l	ext_hal_l	ercspn_r	ercspn_l	intobl_r	intobl_l	extobl_r	extobl_l	femur_lat_meniscii_l.femur_lat_l.force.X	femur_lat_meniscii_l.femur_lat_l.force.Y	femur_lat_meniscii_l.femur_lat_l.force.Z	femur_lat_meniscii_l.femur_lat_l.torque.X	femur_lat_meniscii_l.femur_lat_l.torque.Y	femur_lat_meniscii_l.femur_lat_l.torque.Z	femur_lat_meniscii_l.meniscus_lat_l.force.X	femur_lat_meniscii_l.meniscus_lat_l.force.Y	femur_lat_meniscii_l.meniscus_lat_l.force.Z	femur_lat_meniscii_l.meniscus_lat_l.torque.X	femur_lat_meniscii_l.meniscus_lat_l.torque.Y	femur_lat_meniscii_l.meniscus_lat_l.torque.Z	femur_med_meniscii_l.femur_med_l.force.X	femur_med_meniscii_l.femur_med_l.force.Y	femur_med_meniscii_l.femur_med_l.force.Z	femur_med_meniscii_l.femur_med_l.torque.X	femur_med_meniscii_l.femur_med_l.torque.Y	femur_med_meniscii_l.femur_med_l.torque.Z	femur_med_meniscii_l.meniscus_med_l.force.X	femur_med_meniscii_l.meniscus_med_l.force.Y	femur_med_meniscii_l.meniscus_med_l.force.Z	femur_med_meniscii_l.meniscus_med_l.torque.X	femur_med_meniscii_l.meniscus_med_l.torque.Y	femur_med_meniscii_l.meniscus_med_l.torque.Z	femur_lat_meniscii_r.femur_lat_r.force.X	femur_lat_meniscii_r.femur_lat_r.force.Y	femur_lat_meniscii_r.femur_lat_r.force.Z	femur_lat_meniscii_r.femur_lat_r.torque.X	femur_lat_meniscii_r.femur_lat_r.torque.Y	femur_lat_meniscii_r.femur_lat_r.torque.Z	femur_lat_meniscii_r.meniscus_lat_r.force.X	femur_lat_meniscii_r.meniscus_lat_r.force.Y	femur_lat_meniscii_r.meniscus_lat_r.force.Z	femur_lat_meniscii_r.meniscus_lat_r.torque.X	femur_lat_meniscii_r.meniscus_lat_r.torque.Y	femur_lat_meniscii_r.meniscus_lat_r.torque.Z	femur_med_meniscii_r.femur_med_r.force.X	femur_med_meniscii_r.femur_med_r.force.Y	femur_med_meniscii_r.femur_med_r.force.Z	femur_med_meniscii_r.femur_med_r.torque.X	femur_med_meniscii_r.femur_med_r.torque.Y	femur_med_meniscii_r.femur_med_r.torque.Z	femur_med_meniscii_r.meniscus_med_r.force.X	femur_med_meniscii_r.meniscus_med_r.force.Y	femur_med_meniscii_r.meniscus_med_r.force.Z	femur_med_meniscii_r.meniscus_med_r.torque.X	femur_med_meniscii_r.meniscus_med_r.torque.Y	femur_med_meniscii_r.meniscus_med_r.torque.Z	femur_med_tibia_l.tibia_upper_l.force.X	femur_med_tibia_l.tibia_upper_l.force.Y	femur_med_tibia_l.tibia_upper_l.force.Z	femur_med_tibia_l.tibia_upper_l.torque.X	femur_med_tibia_l.tibia_upper_l.torque.Y	femur_med_tibia_l.tibia_upper_l.torque.Z	femur_med_tibia_l.femur_med_l.force.X	femur_med_tibia_l.femur_med_l.force.Y	femur_med_tibia_l.femur_med_l.force.Z	femur_med_tibia_l.femur_med_l.torque.X	femur_med_tibia_l.femur_med_l.torque.Y	femur_med_tibia_l.femur_med_l.torque.Z	femur_lat_tibia_l.tibia_upper_l.force.X	femur_lat_tibia_l.tibia_upper_l.force.Y	femur_lat_tibia_l.tibia_upper_l.force.Z	femur_lat_tibia_l.tibia_upper_l.torque.X	femur_lat_tibia_l.tibia_upper_l.torque.Y	femur_lat_tibia_l.tibia_upper_l.torque.Z	femur_lat_tibia_l.femur_lat_l.force.X	femur_lat_tibia_l.femur_lat_l.force.Y	femur_lat_tibia_l.femur_lat_l.force.Z	femur_lat_tibia_l.femur_lat_l.torque.X	femur_lat_tibia_l.femur_lat_l.torque.Y	femur_lat_tibia_l.femur_lat_l.torque.Z	femur_med_tibia_r.tibia_upper_r.force.X	femur_med_tibia_r.tibia_upper_r.force.Y	femur_med_tibia_r.tibia_upper_r.force.Z	femur_med_tibia_r.tibia_upper_r.torque.X	femur_med_tibia_r.tibia_upper_r.torque.Y	femur_med_tibia_r.tibia_upper_r.torque.Z	femur_med_tibia_r.femur_med_r.force.X	femur_med_tibia_r.femur_med_r.force.Y	femur_med_tibia_r.femur_med_r.force.Z	femur_med_tibia_r.femur_med_r.torque.X	femur_med_tibia_r.femur_med_r.torque.Y	femur_med_tibia_r.femur_med_r.torque.Z	femur_lat_tibia_r.tibia_upper_r.force.X	femur_lat_tibia_r.tibia_upper_r.force.Y	femur_lat_tibia_r.tibia_upper_r.force.Z	femur_lat_tibia_r.tibia_upper_r.torque.X	femur_lat_tibia_r.tibia_upper_r.torque.Y	femur_lat_tibia_r.tibia_upper_r.torque.Z	femur_lat_tibia_r.femur_lat_r.force.X	femur_lat_tibia_r.femur_lat_r.force.Y	femur_lat_tibia_r.femur_lat_r.force.Z	femur_lat_tibia_r.femur_lat_r.torque.X	femur_lat_tibia_r.femur_lat_r.torque.Y	femur_lat_tibia_r.femur_lat_r.torque.Z	aACL_R	pACL_R	aPCL_R	pPCL_R	aMCL_R	aLCL_R	aPCL_L	pPCL_L	aMCL_L	aLCL_L	ground_prescribedForce_0_fx	ground_prescribedForce_0_fy	ground_prescribedForce_0_fz
      0.10609723	     16.12019926	     11.49865819	     12.41216339	      5.24314694	      6.00636491	      6.80796714	      6.96599171	      8.47598838	     12.25492761	     13.97885236	      3.00660567	     11.48396397	      8.11482840	      5.90462593	      5.04426345	      8.67322465	      7.09176562	      4.43556892	      3.03188435	      7.43808997	     11.32173139	      8.54535204	     33.40393249	     25.20409407	      7.25683012	      4.62571033	      9.94636298	     30.01470193	     26.52994296	     28.26421746	     38.11463988	      3.64139329	      1.86647083	     12.85875307	     19.71044060	      9.26992828	      9.69772462	     26.61022156	     10.21527350	     22.84707909	      7.59106531	      9.13173607	      2.07265218	     16.12019926	     11.49865819	     12.41216339	      5.24314694	      6.00636491	      6.80796714	     20.44955356	      8.67288014	     17.66459162	     14.44989220	      2.98738380	     11.48396397	      8.11482840	      5.90462593	      5.04426345	      8.67322465	      7.00496310	      4.43556892	      3.10020180	      7.43808997	     11.32173139	      8.54535204	     33.40393249	     25.20409407	      7.25683012	      4.62571033	      9.94636298	     24.35528784	     13.65308453	     15.84438536	     17.02458192	     35.44157588	     16.48730370	     75.75487985	     61.58373782	      7.61686473	      7.54273365	     18.92860071	     10.24748532	     25.18382236	      3.89261266	     12.84434164	      4.02589052	     49.38507338	     49.38507338	     18.77343092	     18.77343092	     35.68361130	     35.68361130	      2.76307435	     50.99597937	     -9.56042239	      5.21997485	     -0.02578839	      1.48581788	     -2.76307435	    -50.99597937	      9.56042239	     -1.74637766	      0.02558040	     -0.48301696	     -3.31599387	     20.97615968	     -3.40468921	      0.94473225	     -0.02138609	     -1.00501789	      3.31599387	    -20.97615968	      3.40468921	      0.28075727	      0.00368718	     -0.29758878	    222.22860932	    107.99860710	     -4.28373220	     -0.87449560	      5.54552427	     90.97894649	   -222.22860932	   -107.99860710	      4.28373220	      2.99775672	     -6.48233726	     -4.44812438	    350.69002550	    108.31712400	      5.38370296	      0.20420714	     -7.52416318	    143.01038623	   -350.69002550	   -108.31712400	     -5.38370296	     -1.78068406	      5.88266961	     -7.29402185	      0.00000000	      0.00000000	      0.00000000	      0.00000000	      0.00000000	      0.00000000	      0.00000000	      0.00000000	      0.00000000	      0.00000000	      0.00000000	      0.00000000	      0.00000000	      0.00000000	      0.00000000	      0.00000000	      0.00000000	      0.00000000	      0.00000000	      0.00000000	      0.00000000	      0.00000000	      0.00000000	      0.00000000	    -55.69542743	    -58.33936612	     25.94583483	     -1.53943441	      1.02873950	     -0.99519961	     55.69542743	     58.33936612	    -25.94583483	     11.73379882	     -0.92937485	     23.10188292	      0.00000000	      0.00000000	      0.00000000	      0.00000000	      0.00000000	      0.00000000	      0.00000000	      0.00000000	      0.00000000	      0.00000000	      0.00000000	      0.00000000	      0.00000000	      0.00000000	    373.98753738	    217.77809529	     15.68199505	      0.00000000	      0.00000000	      0.00000000	      0.00000001	      0.00000000	     84.26488000	    -70.70660000	      0.00000000
      0.10681081	     16.03812883	     11.44297762	     12.35143174	      5.21868745	      5.97938903	      6.77335779	      6.93548545	      8.43416717	     12.20344186	     13.93125058	      2.99416730	     11.42779597	      8.07731075	      5.87608629	      5.01939536	      8.62846449	      7.06743598	      4.41472594	      3.01876682	      7.40181617	     11.26644542	      8.50314585	     33.29978763	     25.08562391	      7.22229562	      4.60843523	      9.89368725	     29.88333574	     26.40597329	     28.13830491	     37.94698546	      3.62969084	      1.86214180	     12.82124390	     19.58350375	      9.21966294	      9.65241901	     26.48391771	     10.14084965	     22.69644678	      7.57804761	      9.05510893	      2.05498343	     16.03812883	     11.44297762	     12.35143174	      5.21868745	      5.97938903	      6.77335779	     20.34192269	      8.62890880	     17.57150375	     14.38102289	      2.97350995	     11.42779597	      8.07731075	      5.87608629	      5.01939536	      8.62846449	      6.97714755	      4.41472594	      3.08556592	      7.40181617	     11.26644542	      8.50314585	     33.29978763	     25.08562391	      7.22229562	      4.60843523	      9.89368725	     24.22707800	     13.58491796	     15.76442389	     16.93841328	     35.25562097	     16.40048520	     75.35246293	     61.40185025	      7.57222675	      7.49925388	     18.82957381	     10.19284600	     25.06624415	      3.87437290	     12.77663569	      4.00461773	     49.15421353	     49.15421353	     18.67979028	     18.67979028	     35.59728379	     35.59728379	      2.76307435	     50.99597937	     -9.56042239	      5.21997485	     -0.02578839	      1.48581788	     -2.76307435	    -50.99597937	      9.56042239	     -1.74637766	      0.02558040	     -0.48301696	     -3.31599387	     20.97615968	     -3.40468921	      0.94473225	     -0.02138609	     -1.00501789	      3.31599387	    -20.97615968	      3.40468921	      0.28075727	      0.00368718	     -0.29758878	    235.23308860	    113.34388101	     -5.38242311	     -0.55072689	      5.85998480	     96.31322567	   -235.23308860	   -113.34388101	      5.38242311	      3.11885652	     -6.84080085	     -4.73001925	    369.55018428	    113.88387557	      4.08039478	      0.86200737	     -7.93703072	    150.70142599	   -369.55018428	   -113.88387557	     -4.08039478	     -1.91434680	      6.22771857	     -7.68699924	      0.00000000	      0.00000000	      0.00000000	      0.00000000	      0.00000000	      0.00000000	      0.00000000	      0.00000000	      0.00000000	      0.00000000	      0.00000000	      0.00000000	      0.00000000	      0.00000000	      0.00000000	      0.00000000	      0.00000000	      0.00000000	      0.00000000	      0.00000000	      0.00000000	      0.00000000	      0.00000000	      0.00000000	    -56.22086370	    -58.38161383	     26.18270884	     -1.54782590	      1.03764297	     -1.01357428	     56.22086370	     58.38161383	    -26.18270884	     11.83338083	     -0.93751519	     23.32251132	      0.00000000	      0.00000000	      0.00000000	      0.00000000	      0.00000000	      0.00000000	      0.00000000	      0.00000000	      0.00000000	      0.00000000	      0.00000000	      0.00000000	      0.00000000	      0.00000000	    372.98710756	    215.72966291	     14.65813079	      0.00000000	      0.00000000	      0.00000000	      0.00000001	      0.00000000	     84.26488000	    -70.70660000	      0.00000000
      0.10752439	     15.95686294	     11.38784444	     12.29129852	      5.19446612	      5.95267863	      6.73908801	      6.90341738	      8.39137039	     12.15004310	     13.86702638	      2.97973995	     11.37218132	      8.04015719	      5.84782793	      4.99477328	      8.58414006	      7.04131930	      4.39408657	      3.00411845	      7.36590147	     11.21170634	      8.46135684	     33.19668934	     24.96833250	      7.18809947	      4.59133406	      9.84148873	     29.75028441	     26.28233532	     28.01077434	     37.78170523	      3.60926389	      1.85367296	     12.77547829	     19.45564779	      9.16905108	      9.60672392	     26.36367491	     10.06763777	     22.54721103	      7.56798173	      8.98117779	      2.03802708	     15.95686294	     11.38784444	     12.29129852	      5.19446612	      5.95267863	      6.73908801	     20.23528015	      8.58536965	     17.47929117	     14.31282909	      2.95977095	     11.37218132	      8.04015719	      5.84782793	      4.99477328	      8.58414006	      6.94960080	      4.39408657	      3.07107311	      7.36590147	     11.21170634	      8.46135684	     33.19668934	     24.96833250	      7.18809947	      4.59133406	      9.84148873	     24.10008235	     13.51743064	     15.68525685	     16.85310532	     35.07129299	     16.31442988	     74.95369541	     61.22170431	      7.52802380	      7.45621186	     18.73149689	     10.13871749	     24.94980780	      3.85631487	     12.70952757	      3.98353576	     48.92560295	     48.92560295	     18.58707213	     18.58707213	     35.51183093	     35.51183093	      2.76307435	     50.99597937	     -9.56042239	      5.21997485	     -0.02578839	      1.48581788	     -2.76307435	    -50.99597937	      9.56042239	     -1.74637766	      0.02558040	     -0.48301696	     -3.31599387	     20.97615968	     -3.40468921	      0.94473225	     -0.02138609	     -1.00501789	      3.31599387	    -20.97615968	      3.40468921	      0.28075727	      0.00368718	     -0.29758878	    228.67386436	    111.25868915	     -4.63718869	     -0.80691777	      5.70090589	     93.61648377	   -228.67386436	   -111.25868915	      4.63718869	      3.08073183	     -6.66298670	     -4.57072280	    362.35207732	    111.17014963	      4.21650604	      0.74708887	     -7.77454412	    147.77065773	   -362.35207732	   -111.17014963	     -4.21650604	     -1.86340761	      6.09461311	     -7.54588636	      0.00000000	      0.00000000	      0.00000000	      0.00000000	      0.00000000	      0.00000000	      0.00000000	      0.00000000	      0.00000000	      0.00000000	      0.00000000	      0.00000000	      0.00000000	      0.00000000	      0.00000000	      0.00000000	      0.00000000	      0.00000000	      0.00000000	      0.00000000	      0.00000000	      0.00000000	      0.00000000	      0.00000000	    -55.41866205	    -57.74095339	     25.90579610	     -1.53029329	      1.02395833	     -0.99539142	     55.41866205	     57.74095339	    -25.90579610	     11.70728413	     -0.92402571	     22.98913438	      0.00000000	      0.00000000	      0.00000000	      0.00000000	      0.00000000	      0.00000000	      0.00000000	      0.00000000	      0.00000000	      0.00000000	      0.00000000	      0.00000000	      0.00000000	      0.00000000	    372.86051184	    216.15208481	     15.09696362	      0.00000000	      0.00000000	      0.00000000	      0.00000001	      0.00000000	     84.26488000	    -70.70660000	      0.00000000
      0.10846987	     15.85041202	     11.31562718	     12.21253397	      5.16273582	      5.91769193	      6.69419813	      6.86229901	      8.33594282	     12.08280137	     13.79599470	      2.96173134	     11.29933520	      7.99148364	      5.81081422	      4.96252393	      8.52607455	      7.00827764	      4.36704972	      2.98561790	      7.31886169	     11.14001044	      8.40662214	     33.06167852	     24.81471787	      7.14330519	      4.56894002	      9.77305448	     29.58040015	     26.12313741	     27.84987780	     37.57290888	      3.58859098	      1.84532109	     12.72198237	     19.28924636	      9.10245052	      9.54684483	     26.20364868	      9.97148902	     22.35125887	      7.55251013	      8.88477848	      2.01599670	     15.85041202	     11.31562718	     12.21253397	      5.16273582	      5.91769193	      6.69419813	     20.09548784	      8.52833897	     17.35844513	     14.22350177	      2.94177233	     11.29933520	      7.99148364	      5.81081422	      4.96252393	      8.52607455	      6.91351155	      4.36704972	      3.05208816	      7.31886169	     11.14001044	      8.40662214	     33.06167852	     24.81471787	      7.14330519	      4.56894002	      9.77305448	     23.93366551	     13.42904500	     15.58157123	     16.74138387	     34.82954518	     16.20157296	     74.43090183	     60.98567080	      7.47011593	      7.39984605	     18.60299383	     10.06777673	     24.79726973	      3.83266493	     12.62152579	      3.95589466	     48.62612200	     48.62612200	     18.46562645	     18.46562645	     35.39993816	     35.39993816	      2.76307435	     50.99597937	     -9.56042239	      5.21997485	     -0.02578839	      1.48581788	     -2.76307435	    -50.99597937	      9.56042239	     -1.74637766	      0.02558040	     -0.48301696	     -3.31599387	     20.97615968	     -3.40468921	      0.94473225	     -0.02138609	     -1.00501789	      3.31599387	    -20.97615968	      3.40468921	      0.28075727	      0.00368718	     -0.29758878	    234.61924489	    113.31764409	     -4.96679745	     -0.72040521	      5.84433865	     96.05793577	   -234.61924489	   -113.31764409	      4.96679745	      3.13006842	     -6.82940854	     -4.70579809	    370.45089364	    113.28257791	      3.45851957	      1.10486163	     -7.94845017	    151.07537895	   -370.45089364	   -113.28257791	     -3.45851957	     -1.92115374	      6.24113987	     -7.71789795	      0.00000000	      0.00000000	      0.00000000	      0.00000000	      0.00000000	      0.00000000	      0.00000000	      0.00000000	      0.00000000	      0.00000000	      0.00000000	      0.00000000	      0.00000000	      0.00000000	      0.00000000	      0.00000000	      0.00000000	      0.00000000	      0.00000000	      0.00000000	      0.00000000	      0.00000000	      0.00000000	      0.00000000	    -55.24847696	    -57.36549814	     25.95198123	     -1.52708342	      1.02221237	     -0.99556702	     55.24847696	     57.36549814	    -25.95198123	     11.72049100	     -0.92097975	     22.91980851	      0.00000000	      0.00000000	      0.00000000	      0.00000000	      0.00000000	      0.00000000	      0.00000000	      0.00000000	      0.00000000	      0.00000000	      0.00000000	      0.00000000	      0.00000000	      0.00000000	    372.08442065	    215.01297195	     14.67109680	      0.00000000	      0.00000000	      0.00000000	      0.00000001	      0.00000000	     84.26488000	    -70.70660000	      0.00000000
